<svg width="232" height="28" viewBox="0 0 232 28" fill="none" xmlns="http://www.w3.org/2000/svg">
<path d="M20.3489 12.3699C19.9699 12.7512 19.6797 13.2114 19.4989 13.7176C19.3181 14.2239 19.2512 14.7638 19.3029 15.2989L19.2849 15.2809C19.3381 15.9108 19.2531 16.5446 19.036 17.1383C18.8189 17.7319 18.4749 18.271 18.028 18.718C17.581 19.1649 17.0419 19.509 16.4482 19.726C15.8546 19.9431 15.2207 20.0281 14.5909 19.9749L14.6089 19.9929C13.8555 19.9228 13.0988 20.0867 12.4419 20.4624C11.7851 20.8381 11.2601 21.4072 10.9386 22.0922C10.6171 22.7772 10.5146 23.5446 10.6452 24.29C10.7759 25.0353 11.1332 25.7222 11.6685 26.257C12.2038 26.7918 12.891 27.1485 13.6364 27.2784C14.3819 27.4084 15.1492 27.3052 15.8339 26.9831C16.5186 26.6609 17.0872 26.1355 17.4623 25.4783C17.8374 24.8211 18.0007 24.0643 17.9299 23.3109L17.9489 23.3289C17.8957 22.6991 17.9806 22.0652 18.1977 21.4715C18.4148 20.8779 18.7589 20.3388 19.2058 19.8918C19.6528 19.4449 20.1919 19.1008 20.7855 18.8838C21.3792 18.6667 22.013 18.5817 22.6429 18.6349L22.6239 18.6169C23.2393 18.6722 23.8588 18.5713 24.4249 18.3235C24.9909 18.0757 25.4853 17.689 25.8621 17.1993C26.2389 16.7096 26.4861 16.1326 26.5805 15.522C26.675 14.9113 26.6138 14.2867 26.4026 13.7059C26.1914 13.1252 25.837 12.6072 25.3723 12.1999C24.9076 11.7926 24.3476 11.5092 23.7442 11.376C23.1408 11.2428 22.5135 11.264 21.9205 11.4377C21.3275 11.6115 20.788 11.9321 20.3519 12.3699H20.3489Z" fill="#15476D"/>
<path d="M12.9718 17.6349L12.9528 17.6169C13.4881 17.6708 14.0287 17.6051 14.5356 17.4245C15.0424 17.2439 15.5028 16.953 15.8834 16.5727C16.2639 16.1924 16.5553 15.7322 16.7362 15.2255C16.9172 14.7188 16.9833 14.1783 16.9298 13.6429L16.9488 13.6609C16.8956 13.031 16.9806 12.3972 17.1976 11.8035C17.4147 11.2099 17.7588 10.6708 18.2057 10.2238C18.6527 9.7769 19.1918 9.4328 19.7854 9.2158C20.3791 8.99866 21.0129 8.91373 21.6428 8.9669L21.6238 8.9489C22.3773 9.0197 23.1342 8.85626 23.7914 8.481C24.4487 8.10574 24.9741 7.53687 25.2961 6.852C25.6181 6.16714 25.721 5.39961 25.5908 4.6541C25.4606 3.90859 25.1036 3.22141 24.5684 2.68627C24.0333 2.15114 23.3461 1.7941 22.6006 1.66388C21.8551 1.53365 21.0876 1.63656 20.4027 1.95858C19.7178 2.28059 19.149 2.80604 18.7737 3.46325C18.3984 4.12045 18.235 4.87742 18.3058 5.6309L18.2878 5.6119C18.3411 6.24179 18.2563 6.87573 18.0393 7.46945C17.8223 8.06317 17.4782 8.60236 17.0313 9.0494C16.5843 9.4963 16.0451 9.8404 15.4514 10.0574C14.8576 10.2744 14.2237 10.3592 13.5938 10.3059L13.6118 10.3249C13.0765 10.271 12.5358 10.3367 12.029 10.5173C11.5222 10.6978 11.0618 10.9888 10.6812 11.3691C10.3006 11.7494 10.0093 12.2096 9.82834 12.7163C9.64744 13.223 9.58134 13.7635 9.63484 14.2989L9.61684 14.2809C9.66984 14.9107 9.58474 15.5445 9.36764 16.1381C9.15044 16.7316 8.80644 17.2707 8.35954 17.7176C7.9126 18.1645 7.37356 18.5085 6.78 18.7257C6.18644 18.9428 5.55265 19.0279 4.92284 18.9749L4.94084 18.9929C4.18736 18.9221 3.43039 19.0855 2.77318 19.4608C2.11598 19.8361 1.59053 20.4049 1.26852 21.0898C0.946502 21.7747 0.843582 22.5422 0.973812 23.2877C1.10404 24.0332 1.46108 24.7204 1.99621 25.2555C2.53135 25.7907 3.21853 26.1477 3.96404 26.2779C4.70955 26.4081 5.47708 26.3052 6.16195 25.9832C6.84681 25.6612 7.41568 25.1358 7.79094 24.4786C8.16624 23.8213 8.32964 23.0644 8.25884 22.3109L8.27784 22.3289C8.22464 21.699 8.30964 21.0652 8.52674 20.4715C8.74374 19.8779 9.08784 19.3388 9.53474 18.8918C9.98174 18.4449 10.5208 18.1008 11.1144 17.8838C11.7081 17.6667 12.3419 17.5817 12.9718 17.6349Z" fill="#15476D"/>
<path d="M6.2699 15.6279C6.64892 15.2467 6.9391 14.7865 7.11974 14.2802C7.30038 13.7739 7.36702 13.2339 7.3149 12.6989L7.33389 12.7169C7.28069 12.0869 7.36565 11.4528 7.58286 10.859C7.80007 10.2652 8.1443 9.726 8.5915 9.279C9.0387 8.83202 9.578 8.48803 10.1719 8.27108C10.7658 8.05412 11.3999 7.96942 12.0299 8.0229L12.0109 8.0049C12.7641 8.07547 13.5208 7.91198 14.1777 7.53674C14.8346 7.16151 15.3597 6.59278 15.6816 5.90813C16.0034 5.22347 16.1062 4.45622 15.976 3.71099C15.8458 2.96576 15.4888 2.27884 14.9539 1.7439C14.419 1.20896 13.732 0.852042 12.9868 0.721822C12.2416 0.591592 11.4743 0.694412 10.7897 1.01623C10.105 1.33805 9.5363 1.86322 9.1611 2.52012C8.7858 3.17702 8.6223 3.93368 8.6929 4.6869L8.6749 4.6689C8.7281 5.29875 8.6431 5.93262 8.426 6.52626C8.2089 7.1199 7.86492 7.65901 7.41796 8.10597C6.97101 8.55293 6.43189 8.89696 5.83825 9.114C5.24461 9.3311 4.61075 9.4161 3.9809 9.3629L3.9989 9.3809C3.38347 9.3257 2.76406 9.4268 2.19808 9.6747C1.6321 9.9226 1.13785 10.3094 0.761139 10.7992C0.384429 11.2889 0.137449 11.8659 0.0430689 12.4765C-0.0513011 13.0872 0.0099889 13.7118 0.221259 14.2924C0.432529 14.8731 0.786959 15.391 1.25169 15.7982C1.71642 16.2055 2.27642 16.4888 2.8798 16.622C3.48317 16.7551 4.1104 16.7338 4.70337 16.5601C5.29633 16.3863 5.83583 16.0657 6.27189 15.6279H6.2699Z" fill="#15476D"/>
<path d="M45.0237 6.96V21H41.6037V15.22H36.2837V21H32.8637V6.96H36.2837V12.46H41.6037V6.96H45.0237ZM50.9126 6.96V21H47.4926V6.96H50.9126ZM58.471 21.14C57.4443 21.14 56.5243 20.9733 55.711 20.64C54.8977 20.3067 54.2443 19.8133 53.751 19.16C53.271 18.5067 53.0177 17.72 52.991 16.8H56.631C56.6843 17.32 56.8643 17.72 57.171 18C57.4777 18.2667 57.8777 18.4 58.371 18.4C58.8777 18.4 59.2777 18.2867 59.571 18.06C59.8643 17.82 60.011 17.4933 60.011 17.08C60.011 16.7333 59.891 16.4467 59.651 16.22C59.4243 15.9933 59.1377 15.8067 58.791 15.66C58.4577 15.5133 57.9777 15.3467 57.351 15.16C56.4443 14.88 55.7043 14.6 55.131 14.32C54.5577 14.04 54.0643 13.6267 53.651 13.08C53.2377 12.5333 53.031 11.82 53.031 10.94C53.031 9.63333 53.5043 8.61333 54.451 7.88C55.3977 7.13333 56.631 6.76 58.151 6.76C59.6977 6.76 60.9443 7.13333 61.891 7.88C62.8377 8.61333 63.3443 9.64 63.411 10.96H59.711C59.6843 10.5067 59.5177 10.1533 59.211 9.9C58.9043 9.63333 58.511 9.5 58.031 9.5C57.6177 9.5 57.2843 9.61333 57.031 9.84C56.7777 10.0533 56.651 10.3667 56.651 10.78C56.651 11.2333 56.8643 11.5867 57.291 11.84C57.7177 12.0933 58.3843 12.3667 59.291 12.66C60.1977 12.9667 60.931 13.26 61.491 13.54C62.0643 13.82 62.5577 14.2267 62.971 14.76C63.3843 15.2933 63.591 15.98 63.591 16.82C63.591 17.62 63.3843 18.3467 62.971 19C62.571 19.6533 61.9843 20.1733 61.211 20.56C60.4377 20.9467 59.5243 21.14 58.471 21.14ZM77.8557 6.96V21H74.4357V15.22H69.1157V21H65.6957V6.96H69.1157V12.46H74.4357V6.96H77.8557ZM89.0646 18.52H83.8246L82.9846 21H79.4046L84.4846 6.96H88.4446L93.5246 21H89.9046L89.0646 18.52ZM88.1846 15.88L86.4446 10.74L84.7246 15.88H88.1846ZM110.971 6.96V21H107.551V12.58L104.411 21H101.651L98.4907 12.56V21H95.0707V6.96H99.1107L103.051 16.68L106.951 6.96H110.971ZM125.808 21L121.088 14.8V21H117.668V6.96H121.088V13.12L125.768 6.96H129.788L124.348 13.84L129.988 21H125.808ZM143.774 6.96V21H140.354V15.22H135.034V21H131.614V6.96H135.034V12.46H140.354V6.96H143.774ZM154.983 18.52H149.743L148.903 21H145.323L150.403 6.96H154.363L159.443 21H155.823L154.983 18.52ZM154.103 15.88L152.363 10.74L150.643 15.88H154.103ZM168.149 21L165.229 15.7H164.409V21H160.989V6.96H166.729C167.835 6.96 168.775 7.15333 169.549 7.54C170.335 7.92667 170.922 8.46 171.309 9.14C171.695 9.80667 171.889 10.5533 171.889 11.38C171.889 12.3133 171.622 13.1467 171.089 13.88C170.569 14.6133 169.795 15.1333 168.769 15.44L172.009 21H168.149ZM164.409 13.28H166.529C167.155 13.28 167.622 13.1267 167.929 12.82C168.249 12.5133 168.409 12.08 168.409 11.52C168.409 10.9867 168.249 10.5667 167.929 10.26C167.622 9.95333 167.155 9.8 166.529 9.8H164.409V13.28ZM184.136 6.96V9.7H180.416V21H176.996V9.7H173.276V6.96H184.136ZM192.492 21.14C191.172 21.14 189.959 20.8333 188.852 20.22C187.759 19.6067 186.885 18.7533 186.232 17.66C185.592 16.5533 185.272 15.3133 185.272 13.94C185.272 12.5667 185.592 11.3333 186.232 10.24C186.885 9.14667 187.759 8.29333 188.852 7.68C189.959 7.06667 191.172 6.76 192.492 6.76C193.812 6.76 195.019 7.06667 196.112 7.68C197.219 8.29333 198.085 9.14667 198.712 10.24C199.352 11.3333 199.672 12.5667 199.672 13.94C199.672 15.3133 199.352 16.5533 198.712 17.66C198.072 18.7533 197.205 19.6067 196.112 20.22C195.019 20.8333 193.812 21.14 192.492 21.14ZM192.492 18.02C193.612 18.02 194.505 17.6467 195.172 16.9C195.852 16.1533 196.192 15.1667 196.192 13.94C196.192 12.7 195.852 11.7133 195.172 10.98C194.505 10.2333 193.612 9.86 192.492 9.86C191.359 9.86 190.452 10.2267 189.772 10.96C189.105 11.6933 188.772 12.6867 188.772 13.94C188.772 15.18 189.105 16.1733 189.772 16.92C190.452 17.6533 191.359 18.02 192.492 18.02ZM204.935 6.96V15.36C204.935 16.2 205.141 16.8467 205.555 17.3C205.968 17.7533 206.575 17.98 207.375 17.98C208.175 17.98 208.788 17.7533 209.215 17.3C209.641 16.8467 209.855 16.2 209.855 15.36V6.96H213.275V15.34C213.275 16.5933 213.008 17.6533 212.475 18.52C211.941 19.3867 211.221 20.04 210.315 20.48C209.421 20.92 208.421 21.14 207.315 21.14C206.208 21.14 205.215 20.9267 204.335 20.5C203.468 20.06 202.781 19.4067 202.275 18.54C201.768 17.66 201.515 16.5933 201.515 15.34V6.96H204.935ZM231.576 6.96V21H228.156V12.58L225.016 21H222.256L219.096 12.56V21H215.676V6.96H219.716L223.656 16.68L227.556 6.96H231.576Z" fill="#15476D"/>
</svg>
