<svg width="706" height="725" viewBox="0 0 706 725" fill="none" xmlns="http://www.w3.org/2000/svg">
<path fill-rule="evenodd" clip-rule="evenodd" d="M160.872 123.12C159.97 123.818 159.253 124.802 158.804 125.958C158.29 127.387 158.054 128.934 158.115 130.485C158.836 137.659 161.221 144.462 165.009 150.149L179.43 177.179C184.752 188.144 191.26 198.252 198.792 207.249C206.222 215.69 216.156 220.392 226.485 220.358C231.886 220.493 237.256 219.368 242.286 217.048C247.315 214.728 251.904 211.26 255.787 206.844C263.64 197.217 270.365 186.4 275.781 174.678L292.041 143.189C293.275 139.953 294.293 136.609 295.086 133.188C297.671 121.025 290.949 123.728 283.135 123.525C282.173 123.479 281.214 123.367 280.263 123.187L286.008 98.2523C244.641 105.956 213.73 69.8037 170.065 91.0219L173.225 121.16C168.801 121.16 165.124 119.741 160.987 123.12H160.872ZM429.07 67.5738H656.704C661.617 67.6092 666.319 69.9202 669.793 74.0058C673.267 78.0913 675.232 83.6224 675.262 89.4002V266.782C675.232 272.559 673.267 278.09 669.793 282.176C666.319 286.262 661.617 288.572 656.704 288.608H571.901L586.38 331.517H677.962C685.394 331.535 692.516 335.015 697.771 341.195C703.026 347.376 705.985 355.753 706 364.493V439.771C706.015 448.547 703.074 456.973 697.819 463.204C692.564 469.435 685.424 472.963 677.962 473.017H663.771V700.065C663.771 706.678 661.537 713.021 657.561 717.697C653.586 722.373 648.193 725 642.57 725H66.5897C60.9359 724.964 55.5231 722.302 51.5305 717.594C47.538 712.885 45.2892 706.512 45.2741 699.862V473.017H28.0378C24.3359 472.999 20.6733 472.123 17.2596 470.439C13.846 468.754 10.7483 466.294 8.14403 463.2C5.53973 460.105 3.47989 456.437 2.08244 452.405C0.68498 448.373 -0.0226548 444.057 4.08346e-05 439.703V364.426C0.0152583 355.692 2.97594 347.322 8.2324 341.152C13.4888 334.982 20.6117 331.517 28.0378 331.517H71.6457C71.6457 322.395 71.6457 317.259 71.6457 308.137C71.6457 250.699 153.576 254.821 181.843 233.13C184.735 225.715 187.211 218.085 189.255 210.29L189.6 209.479C183.144 201.127 177.373 192.077 172.363 182.449L157.942 155.42C153.345 148.257 150.503 139.751 149.726 130.823C149.626 127.76 150.117 124.711 151.163 121.903C152.246 119.156 153.956 116.817 156.104 115.146C157.184 114.301 158.34 113.598 159.551 113.051C158.568 98.2366 158.338 83.3665 158.862 68.5198C159.288 64.8148 159.961 61.1547 160.872 57.5729C163.957 46.7153 169.224 36.8934 176.226 28.941C183.227 20.9886 191.757 15.1404 201.091 11.8929C210.111 8.24394 206.836 -0.473092 215.799 -7.47461e-05C237.287 1.41898 270.553 17.7719 283.365 35.0032C301.061 59.3298 296.465 85.143 295.833 114.876C297.705 115.412 299.41 116.559 300.751 118.185C302.093 119.811 303.017 121.849 303.417 124.066C304.2 132.082 302.834 140.185 299.51 147.243C299.47 147.457 299.369 147.648 299.223 147.784L282.791 179.611C276.985 191.966 269.775 203.333 261.36 213.398L261.015 214.006L263.658 218.534C266.531 223.467 269.749 229.075 272.794 233.468C295.431 250.023 375.12 253.74 376.499 295.163L377.705 331.315H499.854L517.09 288.405H429.07C424.157 288.37 419.454 286.059 415.981 281.973C412.507 277.888 410.542 272.357 410.512 266.579V89.1974C410.572 83.4494 412.552 77.96 416.024 73.9142C419.496 69.8685 424.182 67.5911 429.07 67.5738ZM26.8887 363.277C26.5985 363.645 26.4347 364.127 26.4291 364.629V439.703C26.4132 439.954 26.4416 440.206 26.5125 440.443C26.5833 440.68 26.6951 440.898 26.8407 441.082C26.9864 441.266 27.1628 441.412 27.3589 441.512C27.555 441.612 27.7666 441.663 27.9803 441.663H677.962C678.181 441.673 678.399 441.629 678.602 441.533C678.805 441.437 678.988 441.292 679.14 441.107C679.292 440.922 679.409 440.701 679.483 440.459C679.557 440.217 679.587 439.96 679.571 439.703V364.426C679.57 364.171 679.523 363.918 679.434 363.686C679.345 363.453 679.216 363.245 679.054 363.074C678.753 362.703 678.341 362.484 677.905 362.466C617.693 362.466 28.6698 361.52 27.0611 363.074L26.8887 363.277ZM71.6457 473.017V694.186H637.744V473.017H71.6457ZM200.631 263.538C198.829 261.577 197.392 259.199 196.409 256.553C195.426 253.908 194.919 251.052 194.919 248.165C194.919 245.278 195.426 242.422 196.409 239.777C197.392 237.131 198.829 234.753 200.631 232.792C208.572 235.525 215.96 240.123 222.349 246.307C224.167 245.428 226.134 245.058 228.094 245.226C235.598 239.573 243.544 234.776 251.823 230.9C262.452 243.063 261.36 254.348 250.904 264.687C246.169 263.103 241.672 260.664 237.574 257.456C237.382 259.285 236.996 261.079 236.425 262.795L247.916 315.57C256.764 293.676 265.957 270.971 268.255 242.658C264.142 236.806 260.306 230.692 256.764 224.345C255.902 222.926 255.155 221.642 254.466 220.358C246.226 226.802 236.491 230.083 226.6 229.751C215.489 229.887 204.705 225.332 196.207 216.912C194.093 225.375 191.143 233.517 187.416 241.171C187.179 241.562 186.91 241.924 186.612 242.252C190.664 267.841 197.986 292.56 208.33 315.57L219.821 262.795C218.361 260.208 217.563 257.182 217.522 254.078C212.315 258.378 206.469 261.495 200.286 263.268L200.631 263.538Z" fill="#AEDCFF"/>
</svg>
